<?xml version="1.0" encoding="utf-8"?>
<!-- Generator: Adobe Illustrator 23.1.0, SVG Export Plug-In . SVG Version: 6.00 Build 0)  -->
<svg version="1.1" id="Слой_1" xmlns="http://www.w3.org/2000/svg" xmlns:xlink="http://www.w3.org/1999/xlink" x="0px" y="0px"
	 viewBox="0 0 841.9 595.3" style="enable-background:new 0 0 841.9 595.3;" xml:space="preserve">
<style type="text/css">
	.st0{fill:#FFFFFF;stroke:#FFFFFF;stroke-miterlimit:10;}
	.st1{fill:#FFFFFF;stroke:#FFFFFF;stroke-width:10;stroke-miterlimit:10;}
</style>
<path class="st0" d="M-583,192c0,13.9-4.9,25.8-14.8,35.7c-9.9,9.9-21.8,14.8-35.7,14.8c-13.9,0-25.8-4.9-35.7-14.8
	c-9.9-9.9-14.8-21.8-14.8-35.7c0-13.9,4.9-25.8,14.8-35.7c9.9-9.9,21.8-14.8,35.7-14.8c13.9,0,25.8,4.9,35.7,14.8
	C-587.9,166.2-583,178.1-583,192z M-633.5,151.6c-11.2,0-20.7,3.9-28.6,11.8c-7.9,7.9-11.8,17.4-11.8,28.6
	c0,11.2,3.9,20.7,11.8,28.6c7.9,7.9,17.4,11.8,28.6,11.8c11.2,0,20.7-3.9,28.6-11.8c7.9-7.9,11.8-17.4,11.8-28.6
	c0-11.2-3.9-20.7-11.8-28.6C-612.8,155.6-622.3,151.6-633.5,151.6z"/>
<path class="st0" d="M-507.3,237.5c0,1.4-0.5,2.6-1.5,3.6c-1,1-2.2,1.5-3.6,1.5c-1.4,0-2.6-0.5-3.6-1.5c-1-1-1.5-2.2-1.5-3.6v-4.1
	c-6.3,6.1-13.9,9.2-22.7,9.2c-9,0-16.8-3.2-23.2-9.6c-6.4-6.4-9.6-14.1-9.6-23.2v-32.8c0-1.4,0.5-2.6,1.5-3.6c1-1,2.2-1.5,3.6-1.5
	s2.6,0.5,3.6,1.5c1,1,1.5,2.2,1.5,3.6v32.8c0,6.3,2.2,11.6,6.7,16.1c4.4,4.4,9.8,6.7,16.1,6.7c6.3,0,11.6-2.2,16.1-6.7
	c4.4-4.4,6.7-9.8,6.7-16.1v-32.8c0-1.4,0.5-2.6,1.5-3.6c1-1,2.2-1.5,3.6-1.5c1.4,0,2.6,0.5,3.6,1.5c1,1,1.5,2.2,1.5,3.6V237.5z"/>
<path class="st0" d="M-492.1,151.6c-1.4,0-2.6-0.5-3.6-1.5c-1-1-1.5-2.2-1.5-3.6s0.5-2.6,1.5-3.6c1-1,2.2-1.5,3.6-1.5h65.6
	c1.4,0,2.6,0.5,3.6,1.5c1,1,1.5,2.2,1.5,3.6s-0.5,2.6-1.5,3.6c-1,1-2.2,1.5-3.6,1.5h-27.8v85.8c0,1.4-0.5,2.6-1.5,3.6
	c-1,1-2.2,1.5-3.6,1.5s-2.6-0.5-3.6-1.5c-1-1-1.5-2.2-1.5-3.6v-85.8H-492.1z"/>
<path class="st0" d="M-340.6,207.2c0,9.8-3.5,18.1-10.4,25c-6.9,6.9-15.2,10.4-25,10.4c-9.8,0-18.1-3.4-25-10.4
	c-6.9-6.9-10.4-15.2-10.4-25c0-9.8,3.4-18.1,10.4-25c6.9-6.9,15.2-10.4,25-10.4c9.8,0,18.1,3.5,25,10.4S-340.6,197.4-340.6,207.2z
	 M-376,181.9c-7,0-12.9,2.5-17.9,7.4c-4.9,4.9-7.4,10.9-7.4,17.9c0,7,2.5,12.9,7.4,17.9c4.9,4.9,10.9,7.4,17.9,7.4
	c7,0,12.9-2.5,17.9-7.4c4.9-4.9,7.4-10.9,7.4-17.9c0-7-2.5-12.9-7.4-17.9C-363,184.4-369,181.9-376,181.9z"/>
<path class="st0" d="M-264.9,237.5c0,1.4-0.5,2.6-1.5,3.6c-1,1-2.2,1.5-3.6,1.5s-2.6-0.5-3.6-1.5c-1-1-1.5-2.2-1.5-3.6v-4.1
	c-6.3,6.1-13.9,9.2-22.7,9.2c-9,0-16.8-3.2-23.2-9.6c-6.4-6.4-9.6-14.1-9.6-23.2v-32.8c0-1.4,0.5-2.6,1.5-3.6c1-1,2.2-1.5,3.6-1.5
	c1.4,0,2.6,0.5,3.6,1.5c1,1,1.5,2.2,1.5,3.6v32.8c0,6.3,2.2,11.6,6.7,16.1s9.8,6.7,16.1,6.7c6.3,0,11.6-2.2,16.1-6.7
	s6.7-9.8,6.7-16.1v-32.8c0-1.4,0.5-2.6,1.5-3.6c1-1,2.2-1.5,3.6-1.5s2.6,0.5,3.6,1.5c1,1,1.5,2.2,1.5,3.6V237.5z"/>
<path class="st0" d="M-199.9,225.2c1.4,0,2.6,0.5,3.6,1.5c1,1,1.5,2.2,1.5,3.6s-0.5,2.6-1.6,3.7c-6.5,5.7-14.2,8.5-23,8.5
	c-9.8,0-18.1-3.4-25-10.4c-6.9-6.9-10.4-15.2-10.4-25c0-9.8,3.4-18.1,10.4-25c6.9-6.9,15.2-10.4,25-10.4c8.8,0,16.5,2.8,23,8.5
	c1.2,1.1,1.8,2.4,1.8,3.9c0,1.4-0.5,2.6-1.5,3.6s-2.2,1.5-3.6,1.5c-1.2,0-2.3-0.4-3.2-1.1c-4.7-4.2-10.2-6.2-16.5-6.2
	c-7,0-12.9,2.5-17.9,7.4c-4.9,4.9-7.4,10.9-7.4,17.9c0,7,2.5,12.9,7.4,17.9c4.9,4.9,10.9,7.4,17.9,7.4c6.3,0,11.8-2.1,16.5-6.2
	C-202.1,225.6-201,225.2-199.9,225.2z"/>
<path class="st0" d="M-184.1,146.6c0-1.4,0.5-2.6,1.5-3.6c1-1,2.2-1.5,3.6-1.5c1.4,0,2.6,0.5,3.6,1.5c1,1,1.5,2.2,1.5,3.6V181
	c6.3-6.1,13.9-9.2,22.7-9.2c9,0,16.8,3.2,23.2,9.6c6.4,6.4,9.6,14.2,9.6,23.2v32.8c0,1.4-0.5,2.6-1.5,3.6c-1,1-2.2,1.5-3.6,1.5
	s-2.6-0.5-3.6-1.5c-1-1-1.5-2.2-1.5-3.6v-32.8c0-6.3-2.2-11.6-6.7-16.1c-4.4-4.4-9.8-6.7-16.1-6.7c-6.3,0-11.6,2.2-16.1,6.7
	c-4.4,4.4-6.7,9.8-6.7,16.1v32.8c0,1.4-0.5,2.6-1.5,3.6c-1,1-2.2,1.5-3.6,1.5c-1.4,0-2.6-0.5-3.6-1.5c-1-1-1.5-2.2-1.5-3.6V146.6z"
	/>
<line class="st1" x1="-662.1" y1="163.5" x2="-604.9" y2="220.6"/>
</svg>
